<svg xmlns="http://www.w3.org/2000/svg" width="464" height="390" font-family="-apple-system,Segoe UI,Roboto,sans-serif">
<text x="20" y="26" font-size="16" font-weight="700" fill="#1A477A">Robustezza engine — fase STRUTTURA</text>
<text x="20" y="46" font-size="12" fill="#6b7280">113/117 query corrette (96.6%) · 28/31 celle (a,d) tutte verdi · griglia fino a 8 azioni × 7 domini</text>
<text x="252.0" y="38" font-size="12" font-weight="600" fill="#1a1a1a" text-anchor="middle">numero di DOMINI →</text>
<text x="22" y="197.0" font-size="12" font-weight="600" fill="#1a1a1a" text-anchor="middle" transform="rotate(-90 22 197.0)">numero di AZIONI →</text>
<text x="96.0" y="56" font-size="11" fill="#6b7280" text-anchor="middle">1</text>
<text x="148.0" y="56" font-size="11" fill="#6b7280" text-anchor="middle">2</text>
<text x="200.0" y="56" font-size="11" fill="#6b7280" text-anchor="middle">3</text>
<text x="252.0" y="56" font-size="11" fill="#6b7280" text-anchor="middle">4</text>
<text x="304.0" y="56" font-size="11" fill="#6b7280" text-anchor="middle">5</text>
<text x="356.0" y="56" font-size="11" fill="#6b7280" text-anchor="middle">6</text>
<text x="408.0" y="56" font-size="11" fill="#6b7280" text-anchor="middle">7</text>
<text x="58" y="87.0" font-size="11" fill="#6b7280" text-anchor="end">2</text>
<rect x="70" y="64" width="49" height="35" rx="3" fill="#548235" stroke="#fff" stroke-width="1"/>
<text x="94.5" y="82.0" font-size="11" font-weight="700" fill="#fff" text-anchor="middle">100%</text>
<text x="94.5" y="94.0" font-size="8" fill="#fff" text-anchor="middle" opacity="0.85">4/4</text>
<rect x="122" y="64" width="49" height="35" rx="3" fill="#548235" stroke="#fff" stroke-width="1"/>
<text x="146.5" y="82.0" font-size="11" font-weight="700" fill="#fff" text-anchor="middle">100%</text>
<text x="146.5" y="94.0" font-size="8" fill="#fff" text-anchor="middle" opacity="0.85">4/4</text>
<rect x="174" y="64" width="49" height="35" rx="3" fill="#eef1f4" stroke="#fff" stroke-width="1"/>
<rect x="226" y="64" width="49" height="35" rx="3" fill="#eef1f4" stroke="#fff" stroke-width="1"/>
<rect x="278" y="64" width="49" height="35" rx="3" fill="#eef1f4" stroke="#fff" stroke-width="1"/>
<rect x="330" y="64" width="49" height="35" rx="3" fill="#eef1f4" stroke="#fff" stroke-width="1"/>
<rect x="382" y="64" width="49" height="35" rx="3" fill="#eef1f4" stroke="#fff" stroke-width="1"/>
<text x="58" y="125.0" font-size="11" fill="#6b7280" text-anchor="end">3</text>
<rect x="70" y="102" width="49" height="35" rx="3" fill="#548235" stroke="#fff" stroke-width="1"/>
<text x="94.5" y="120.0" font-size="11" font-weight="700" fill="#fff" text-anchor="middle">100%</text>
<text x="94.5" y="132.0" font-size="8" fill="#fff" text-anchor="middle" opacity="0.85">4/4</text>
<rect x="122" y="102" width="49" height="35" rx="3" fill="#548235" stroke="#fff" stroke-width="1"/>
<text x="146.5" y="120.0" font-size="11" font-weight="700" fill="#fff" text-anchor="middle">100%</text>
<text x="146.5" y="132.0" font-size="8" fill="#fff" text-anchor="middle" opacity="0.85">4/4</text>
<rect x="174" y="102" width="49" height="35" rx="3" fill="#548235" stroke="#fff" stroke-width="1"/>
<text x="198.5" y="120.0" font-size="11" font-weight="700" fill="#fff" text-anchor="middle">100%</text>
<text x="198.5" y="132.0" font-size="8" fill="#fff" text-anchor="middle" opacity="0.85">4/4</text>
<rect x="226" y="102" width="49" height="35" rx="3" fill="#eef1f4" stroke="#fff" stroke-width="1"/>
<rect x="278" y="102" width="49" height="35" rx="3" fill="#eef1f4" stroke="#fff" stroke-width="1"/>
<rect x="330" y="102" width="49" height="35" rx="3" fill="#eef1f4" stroke="#fff" stroke-width="1"/>
<rect x="382" y="102" width="49" height="35" rx="3" fill="#eef1f4" stroke="#fff" stroke-width="1"/>
<text x="58" y="163.0" font-size="11" fill="#6b7280" text-anchor="end">4</text>
<rect x="70" y="140" width="49" height="35" rx="3" fill="#548235" stroke="#fff" stroke-width="1"/>
<text x="94.5" y="158.0" font-size="11" font-weight="700" fill="#fff" text-anchor="middle">100%</text>
<text x="94.5" y="170.0" font-size="8" fill="#fff" text-anchor="middle" opacity="0.85">3/3</text>
<rect x="122" y="140" width="49" height="35" rx="3" fill="#548235" stroke="#fff" stroke-width="1"/>
<text x="146.5" y="158.0" font-size="11" font-weight="700" fill="#fff" text-anchor="middle">100%</text>
<text x="146.5" y="170.0" font-size="8" fill="#fff" text-anchor="middle" opacity="0.85">4/4</text>
<rect x="174" y="140" width="49" height="35" rx="3" fill="#548235" stroke="#fff" stroke-width="1"/>
<text x="198.5" y="158.0" font-size="11" font-weight="700" fill="#fff" text-anchor="middle">100%</text>
<text x="198.5" y="170.0" font-size="8" fill="#fff" text-anchor="middle" opacity="0.85">4/4</text>
<rect x="226" y="140" width="49" height="35" rx="3" fill="#548235" stroke="#fff" stroke-width="1"/>
<text x="250.5" y="158.0" font-size="11" font-weight="700" fill="#fff" text-anchor="middle">100%</text>
<text x="250.5" y="170.0" font-size="8" fill="#fff" text-anchor="middle" opacity="0.85">4/4</text>
<rect x="278" y="140" width="49" height="35" rx="3" fill="#eef1f4" stroke="#fff" stroke-width="1"/>
<rect x="330" y="140" width="49" height="35" rx="3" fill="#eef1f4" stroke="#fff" stroke-width="1"/>
<rect x="382" y="140" width="49" height="35" rx="3" fill="#eef1f4" stroke="#fff" stroke-width="1"/>
<text x="58" y="201.0" font-size="11" fill="#6b7280" text-anchor="end">5</text>
<rect x="70" y="178" width="49" height="35" rx="3" fill="#548235" stroke="#fff" stroke-width="1"/>
<text x="94.5" y="196.0" font-size="11" font-weight="700" fill="#fff" text-anchor="middle">100%</text>
<text x="94.5" y="208.0" font-size="8" fill="#fff" text-anchor="middle" opacity="0.85">1/1</text>
<rect x="122" y="178" width="49" height="35" rx="3" fill="#548235" stroke="#fff" stroke-width="1"/>
<text x="146.5" y="196.0" font-size="11" font-weight="700" fill="#fff" text-anchor="middle">100%</text>
<text x="146.5" y="208.0" font-size="8" fill="#fff" text-anchor="middle" opacity="0.85">4/4</text>
<rect x="174" y="178" width="49" height="35" rx="3" fill="#548235" stroke="#fff" stroke-width="1"/>
<text x="198.5" y="196.0" font-size="11" font-weight="700" fill="#fff" text-anchor="middle">100%</text>
<text x="198.5" y="208.0" font-size="8" fill="#fff" text-anchor="middle" opacity="0.85">4/4</text>
<rect x="226" y="178" width="49" height="35" rx="3" fill="#548235" stroke="#fff" stroke-width="1"/>
<text x="250.5" y="196.0" font-size="11" font-weight="700" fill="#fff" text-anchor="middle">100%</text>
<text x="250.5" y="208.0" font-size="8" fill="#fff" text-anchor="middle" opacity="0.85">4/4</text>
<rect x="278" y="178" width="49" height="35" rx="3" fill="#548235" stroke="#fff" stroke-width="1"/>
<text x="302.5" y="196.0" font-size="11" font-weight="700" fill="#fff" text-anchor="middle">100%</text>
<text x="302.5" y="208.0" font-size="8" fill="#fff" text-anchor="middle" opacity="0.85">4/4</text>
<rect x="330" y="178" width="49" height="35" rx="3" fill="#eef1f4" stroke="#fff" stroke-width="1"/>
<rect x="382" y="178" width="49" height="35" rx="3" fill="#eef1f4" stroke="#fff" stroke-width="1"/>
<text x="58" y="239.0" font-size="11" fill="#6b7280" text-anchor="end">6</text>
<rect x="70" y="216" width="49" height="35" rx="3" fill="#eef1f4" stroke="#fff" stroke-width="1"/>
<rect x="122" y="216" width="49" height="35" rx="3" fill="#548235" stroke="#fff" stroke-width="1"/>
<text x="146.5" y="234.0" font-size="11" font-weight="700" fill="#fff" text-anchor="middle">100%</text>
<text x="146.5" y="246.0" font-size="8" fill="#fff" text-anchor="middle" opacity="0.85">4/4</text>
<rect x="174" y="216" width="49" height="35" rx="3" fill="#548235" stroke="#fff" stroke-width="1"/>
<text x="198.5" y="234.0" font-size="11" font-weight="700" fill="#fff" text-anchor="middle">100%</text>
<text x="198.5" y="246.0" font-size="8" fill="#fff" text-anchor="middle" opacity="0.85">4/4</text>
<rect x="226" y="216" width="49" height="35" rx="3" fill="#548235" stroke="#fff" stroke-width="1"/>
<text x="250.5" y="234.0" font-size="11" font-weight="700" fill="#fff" text-anchor="middle">100%</text>
<text x="250.5" y="246.0" font-size="8" fill="#fff" text-anchor="middle" opacity="0.85">4/4</text>
<rect x="278" y="216" width="49" height="35" rx="3" fill="#548235" stroke="#fff" stroke-width="1"/>
<text x="302.5" y="234.0" font-size="11" font-weight="700" fill="#fff" text-anchor="middle">100%</text>
<text x="302.5" y="246.0" font-size="8" fill="#fff" text-anchor="middle" opacity="0.85">4/4</text>
<rect x="330" y="216" width="49" height="35" rx="3" fill="#548235" stroke="#fff" stroke-width="1"/>
<text x="354.5" y="234.0" font-size="11" font-weight="700" fill="#fff" text-anchor="middle">100%</text>
<text x="354.5" y="246.0" font-size="8" fill="#fff" text-anchor="middle" opacity="0.85">4/4</text>
<rect x="382" y="216" width="49" height="35" rx="3" fill="#eef1f4" stroke="#fff" stroke-width="1"/>
<text x="58" y="277.0" font-size="11" fill="#6b7280" text-anchor="end">7</text>
<rect x="70" y="254" width="49" height="35" rx="3" fill="#eef1f4" stroke="#fff" stroke-width="1"/>
<rect x="122" y="254" width="49" height="35" rx="3" fill="rgb(170,151,56)" stroke="#fff" stroke-width="1"/>
<text x="146.5" y="272.0" font-size="11" font-weight="700" fill="#1a1a1a" text-anchor="middle">66%</text>
<text x="146.5" y="284.0" font-size="8" fill="#1a1a1a" text-anchor="middle" opacity="0.85">2/3</text>
<rect x="174" y="254" width="49" height="35" rx="3" fill="#548235" stroke="#fff" stroke-width="1"/>
<text x="198.5" y="272.0" font-size="11" font-weight="700" fill="#fff" text-anchor="middle">100%</text>
<text x="198.5" y="284.0" font-size="8" fill="#fff" text-anchor="middle" opacity="0.85">4/4</text>
<rect x="226" y="254" width="49" height="35" rx="3" fill="#548235" stroke="#fff" stroke-width="1"/>
<text x="250.5" y="272.0" font-size="11" font-weight="700" fill="#fff" text-anchor="middle">100%</text>
<text x="250.5" y="284.0" font-size="8" fill="#fff" text-anchor="middle" opacity="0.85">4/4</text>
<rect x="278" y="254" width="49" height="35" rx="3" fill="rgb(149,146,55)" stroke="#fff" stroke-width="1"/>
<text x="302.5" y="272.0" font-size="11" font-weight="700" fill="#1a1a1a" text-anchor="middle">75%</text>
<text x="302.5" y="284.0" font-size="8" fill="#1a1a1a" text-anchor="middle" opacity="0.85">3/4</text>
<rect x="330" y="254" width="49" height="35" rx="3" fill="#548235" stroke="#fff" stroke-width="1"/>
<text x="354.5" y="272.0" font-size="11" font-weight="700" fill="#fff" text-anchor="middle">100%</text>
<text x="354.5" y="284.0" font-size="8" fill="#fff" text-anchor="middle" opacity="0.85">4/4</text>
<rect x="382" y="254" width="49" height="35" rx="3" fill="#548235" stroke="#fff" stroke-width="1"/>
<text x="406.5" y="272.0" font-size="11" font-weight="700" fill="#fff" text-anchor="middle">100%</text>
<text x="406.5" y="284.0" font-size="8" fill="#fff" text-anchor="middle" opacity="0.85">4/4</text>
<text x="58" y="315.0" font-size="11" fill="#6b7280" text-anchor="end">8</text>
<rect x="70" y="292" width="49" height="35" rx="3" fill="#eef1f4" stroke="#fff" stroke-width="1"/>
<rect x="122" y="292" width="49" height="35" rx="3" fill="#548235" stroke="#fff" stroke-width="1"/>
<text x="146.5" y="310.0" font-size="11" font-weight="700" fill="#fff" text-anchor="middle">100%</text>
<text x="146.5" y="322.0" font-size="8" fill="#fff" text-anchor="middle" opacity="0.85">2/2</text>
<rect x="174" y="292" width="49" height="35" rx="3" fill="#548235" stroke="#fff" stroke-width="1"/>
<text x="198.5" y="310.0" font-size="11" font-weight="700" fill="#fff" text-anchor="middle">100%</text>
<text x="198.5" y="322.0" font-size="8" fill="#fff" text-anchor="middle" opacity="0.85">4/4</text>
<rect x="226" y="292" width="49" height="35" rx="3" fill="rgb(214,162,58)" stroke="#fff" stroke-width="1"/>
<text x="250.5" y="310.0" font-size="11" font-weight="700" fill="#1a1a1a" text-anchor="middle">50%</text>
<text x="250.5" y="322.0" font-size="8" fill="#1a1a1a" text-anchor="middle" opacity="0.85">2/4</text>
<rect x="278" y="292" width="49" height="35" rx="3" fill="#548235" stroke="#fff" stroke-width="1"/>
<text x="302.5" y="310.0" font-size="11" font-weight="700" fill="#fff" text-anchor="middle">100%</text>
<text x="302.5" y="322.0" font-size="8" fill="#fff" text-anchor="middle" opacity="0.85">4/4</text>
<rect x="330" y="292" width="49" height="35" rx="3" fill="#548235" stroke="#fff" stroke-width="1"/>
<text x="354.5" y="310.0" font-size="11" font-weight="700" fill="#fff" text-anchor="middle">100%</text>
<text x="354.5" y="322.0" font-size="8" fill="#fff" text-anchor="middle" opacity="0.85">4/4</text>
<rect x="382" y="292" width="49" height="35" rx="3" fill="#548235" stroke="#fff" stroke-width="1"/>
<text x="406.5" y="310.0" font-size="11" font-weight="700" fill="#fff" text-anchor="middle">100%</text>
<text x="406.5" y="322.0" font-size="8" fill="#fff" text-anchor="middle" opacity="0.85">4/4</text>
<text x="20" y="352" font-size="11" fill="#6b7280">Copertura per cella (verde=tutte le query corrette · rosso=fallite · grigio=non applicabile)</text>
</svg>